# xmcd
#
# Track frame offsets: 
#        150
#        19694
#        38490
#        79813
#        95167
#        115752
#        133513
#        150790
#        171894
#        188826
#        213339
#        234496
#        250672
#        270460
#        285717
#        312150
#        328628
#
# Disc length: 4780 seconds
#
# Revision: 0
# Processed by: cddbd v1.5.2PL0 Copyright (c) Steve Scherf et al.
# Submitted via: ExactAudioCopy v1.3
#
DISCID=d812aa11
DTITLE=Various Artist - Akella Presents - vol. 150 - Rockin' Blues  C
DTITLE=D2
DYEAR=2018
DGENRE=Blues
TTITLE0=Gregg Allman - Love Like Kerosene
TTITLE1=Fernando Noronha - Outer Space Blues
TTITLE2=Gary B.B. Coleman - The Sky is Crying
TTITLE3=Bobby Mack - I Can't Help Myself
TTITLE4=Rocky Athas - Time Flies
TTITLE5=Eric Street Band - Ruby's Bar
TTITLE6=George Thorogood - You Don't Love Me, You Don't Care
TTITLE7=Tinsley Ellis - Don't Turn Off The Light
TTITLE8=Todd Stedman - Shake for Me
TTITLE9=Dennis Jones - You Took My Baby
TTITLE10=Freddie and the Screamers - Long Hot Summer
TTITLE11=Myles Goodwyn - Brand New Cardboard Belt
TTITLE12=Mark Robinson - Lifetime Prescription
TTITLE13=Burn the Batteau - Chance To Mend
TTITLE14=Buck69 - Cold Wind
TTITLE15=Freddy And The Phantoms - When the Raven Pecks On Your Door
TTITLE16=Cyril Lance - Just Not Ready
EXTD=
EXTT0=
EXTT1=
EXTT2=
EXTT3=
EXTT4=
EXTT5=
EXTT6=
EXTT7=
EXTT8=
EXTT9=
EXTT10=
EXTT11=
EXTT12=
EXTT13=
EXTT14=
EXTT15=
EXTT16=
PLAYORDER=
